<?xml version="1.0" encoding="utf-8"?>
<!-- Generator: Adobe Illustrator 25.3.1, SVG Export Plug-In . SVG Version: 6.00 Build 0)  -->
<svg version="1.1" id="Layer_1" xmlns="http://www.w3.org/2000/svg" xmlns:xlink="http://www.w3.org/1999/xlink" x="0px" y="0px"
	 viewBox="0 0 500 500" style="enable-background:new 0 0 500 500;" xml:space="preserve">
<style type="text/css">
	.st0{fill:#D8BA9A;}
</style>
<g>
	<path class="st0" d="M250,61c50.48,0,97.95,19.66,133.64,55.36S439,199.52,439,250s-19.66,97.95-55.36,133.64S300.48,439,250,439
		s-97.95-19.66-133.64-55.36S61,300.48,61,250s19.66-97.95,55.36-133.64S199.52,61,250,61 M250,31C129.05,31,31,129.05,31,250
		s98.05,219,219,219s219-98.05,219-219S370.95,31,250,31L250,31z"/>
</g>
</svg>
