<?xml version="1.0" encoding="utf-8"?>
<!-- Generator: Adobe Illustrator 25.3.1, SVG Export Plug-In . SVG Version: 6.00 Build 0)  -->
<svg version="1.1" xmlns="http://www.w3.org/2000/svg" xmlns:xlink="http://www.w3.org/1999/xlink" x="0px" y="0px"
	 viewBox="0 0 500 500" style="enable-background:new 0 0 500 500;" xml:space="preserve">
<style type="text/css">
	.st0{fill:none;stroke:#CCCCCC;stroke-width:3;stroke-miterlimit:10;}
	.st1{fill:none;stroke:#E6E6E6;stroke-width:2;stroke-miterlimit:10;}
	.st2{fill:none;stroke:#FFF6B6;stroke-width:7;stroke-miterlimit:10;}
</style>
<g id="Layer_2">
	<polyline class="st0" points="250,31.87 250,47.73 250,16 	"/>
	<line class="st0" x1="84.54" y1="84.54" x2="106.98" y2="106.98"/>
	<line class="st0" x1="16" y1="250" x2="47.73" y2="250"/>
	<line class="st0" x1="84.54" y1="415.46" x2="106.98" y2="393.02"/>
	<line class="st0" x1="250" y1="484" x2="250" y2="452.27"/>
	<line class="st0" x1="415.46" y1="415.46" x2="393.02" y2="393.02"/>
	<line class="st0" x1="484" y1="250" x2="452.27" y2="250"/>
	<line class="st0" x1="415.46" y1="84.54" x2="393.02" y2="106.98"/>
</g>
<g id="Layer_3">
	<line class="st1" x1="215.88" y1="34.55" x2="218.36" y2="50.22"/>
	<line class="st1" x1="182.59" y1="42.54" x2="187.5" y2="57.63"/>
	<line class="st1" x1="150.97" y1="55.64" x2="158.17" y2="69.78"/>
	<line class="st1" x1="121.78" y1="73.53" x2="131.11" y2="86.36"/>
	<line class="st1" x1="73.53" y1="121.78" x2="86.36" y2="131.11"/>
	<line class="st1" x1="55.64" y1="150.97" x2="69.78" y2="158.17"/>
	<line class="st1" x1="42.54" y1="182.59" x2="57.63" y2="187.5"/>
	<line class="st1" x1="34.55" y1="215.88" x2="50.22" y2="218.36"/>
	<line class="st1" x1="34.55" y1="284.12" x2="50.22" y2="281.64"/>
	<line class="st1" x1="42.54" y1="317.41" x2="57.63" y2="312.5"/>
	<line class="st1" x1="55.64" y1="349.03" x2="69.78" y2="341.83"/>
	<line class="st1" x1="73.53" y1="378.22" x2="86.36" y2="368.89"/>
	<line class="st1" x1="121.78" y1="426.47" x2="131.11" y2="413.64"/>
	<line class="st1" x1="150.97" y1="444.36" x2="158.17" y2="430.22"/>
	<line class="st1" x1="182.59" y1="457.46" x2="187.5" y2="442.37"/>
	<line class="st1" x1="215.88" y1="465.45" x2="218.36" y2="449.78"/>
	<line class="st1" x1="284.12" y1="465.45" x2="281.64" y2="449.78"/>
	<line class="st1" x1="317.41" y1="457.46" x2="312.5" y2="442.37"/>
	<line class="st1" x1="349.03" y1="444.36" x2="341.83" y2="430.22"/>
	<line class="st1" x1="378.22" y1="426.47" x2="368.89" y2="413.64"/>
	<line class="st1" x1="426.47" y1="378.22" x2="413.64" y2="368.89"/>
	<line class="st1" x1="444.36" y1="349.03" x2="430.22" y2="341.83"/>
	<line class="st1" x1="457.46" y1="317.41" x2="442.37" y2="312.5"/>
	<line class="st1" x1="465.45" y1="284.12" x2="449.78" y2="281.64"/>
	<line class="st1" x1="465.45" y1="215.88" x2="449.78" y2="218.36"/>
	<line class="st1" x1="457.46" y1="182.59" x2="442.37" y2="187.5"/>
	<line class="st1" x1="444.36" y1="150.97" x2="430.22" y2="158.17"/>
	<line class="st1" x1="426.47" y1="121.78" x2="413.64" y2="131.11"/>
	<line class="st1" x1="378.22" y1="73.53" x2="368.89" y2="86.36"/>
	<line class="st1" x1="349.03" y1="55.64" x2="341.83" y2="69.78"/>
	<line class="st1" x1="317.41" y1="42.54" x2="312.5" y2="57.63"/>
	<line class="st1" x1="284.12" y1="34.55" x2="281.64" y2="50.22"/>
</g>
<g id="Layer_4">
	<circle class="st2" cx="250" cy="250" r="184"/>
</g>
</svg>
