<svg id="Layer_1" data-name="Layer 1" xmlns="http://www.w3.org/2000/svg" viewBox="0 0 567.17 109.08"><defs><style>.cls-1,.cls-2,.cls-3,.cls-4,.cls-5,.cls-6,.cls-7{fill:none;stroke-miterlimit:10;stroke-width:2px;}.cls-1{stroke:#f39322;}.cls-2{stroke:#fecb37;}.cls-3{stroke:#fed58b;}.cls-4{stroke:#ffe8c0;}.cls-5{stroke:#fed58c;}.cls-6{stroke:#fecb38;}.cls-7{stroke:#f39323;}</style></defs><path class="cls-1" d="M122.45,94.12l-9.77,84.43A20.71,20.71,0,0,1,92.1,196.88H77.19Q72.62,173.21,69.1,143q-1.59,13-7.45,53.89H28.47l-12-102.76h26L45.3,130,48,164.64Q49.16,144,52.9,113.55a22.13,22.13,0,0,1,22-19.43h8.3q.56,4.5,2.91,33.89l3,39.1q2.28-37.31,7.46-73Z" transform="translate(-15.39 -93.12)"/><path class="cls-2" d="M160.13,94.12h26.22v20.56H168.51v19.49h16.7v19.55h-16.7v22.6h19.62v20.56H141.79V112.45A18.34,18.34,0,0,1,160.13,94.12Z" transform="translate(-15.39 -93.12)"/><path class="cls-3" d="M234.19,109.11v67.21h16.25v20.56H219.57a12.11,12.11,0,0,1-12.11-12.11V94.12h11.73A15,15,0,0,1,234.19,109.11Z" transform="translate(-15.39 -93.12)"/><path class="cls-4" d="M332.93,141h-10.1a16.63,16.63,0,0,1-16.62-16.63v-1.24q0-7.78-.86-9.72c-.57-1.29-1.83-1.93-3.78-1.93-2.2,0-3.59.78-4.19,2.35s-.88,5-.88,10.15v47.74q0,7.49.88,9.77t4,2.29q3,0,3.91-2.29c.61-1.53.92-5.11.92-10.76V157.85h26.72v4q0,16-2.25,22.63t-10,11.7q-7.71,5-19,5-11.74,0-19.36-4.25a20.67,20.67,0,0,1-10.09-11.78q-2.47-7.51-2.48-22.63v-30a135,135,0,0,1,.76-16.66,23.32,23.32,0,0,1,4.54-10.7,25.33,25.33,0,0,1,10.47-8.09,37.84,37.84,0,0,1,15.4-2.95q11.81,0,19.49,4.56t10.09,11.38q2.42,6.81,2.41,21.2Z" transform="translate(-15.39 -93.12)"/><path class="cls-5" d="M414.09,156.45q0,15.5-.73,21.93a24.53,24.53,0,0,1-14.95,20,37.66,37.66,0,0,1-15.23,2.86,38.68,38.68,0,0,1-14.82-2.7A24.69,24.69,0,0,1,353,178.67q-.76-6.34-.76-22.22V138.87q0-15.5.73-21.93a24.57,24.57,0,0,1,14.94-20,37.88,37.88,0,0,1,15.24-2.85A38.87,38.87,0,0,1,398,96.81a24.72,24.72,0,0,1,15.33,19.84q.76,6.34.76,22.22Zm-26.72-33.77q0-7.17-.8-9.17a3.14,3.14,0,0,0-3.26-2,3.65,3.65,0,0,0-3.21,1.62q-1.11,1.62-1.11,9.55v48q0,9,.73,11c.49,1.4,1.62,2.1,3.4,2.1a3.3,3.3,0,0,0,3.49-2.41q.75-2.42.76-11.49Z" transform="translate(-15.39 -93.12)"/><path class="cls-6" d="M515.88,94.12V196.88H492.52l0-69.38-9.3,69.38H466.63l-9.81-67.79,0,67.79H433.43V94.12h13.13a24.79,24.79,0,0,1,24.59,21.59l0,.25L475,142.1l3.23-25.24A26.05,26.05,0,0,1,504,94.12Z" transform="translate(-15.39 -93.12)"/><path class="cls-7" d="M535.22,94.12h44.56v20.56H561.94v19.49h16.7v19.55h-16.7v22.6h19.62v20.56H553.31a18.08,18.08,0,0,1-18.09-18.08Z" transform="translate(-15.39 -93.12)"/></svg>